<svg width="16" height="16" viewBox="0 0 16 16" fill="none" xmlns="http://www.w3.org/2000/svg">
<path d="M16 16H0V0H16V16Z" stroke="#E5E7EB"/>
<path d="M7.05625 14.6312L6.97813 14.5593L1.50312 9.47496C0.54375 8.58433 0 7.33433 0 6.02496V5.92183C0 3.72183 1.5625 1.83433 3.725 1.42183C4.95625 1.18433 6.21562 1.46871 7.21875 2.17496C7.5 2.37496 7.7625 2.60621 8 2.87183C8.13125 2.72183 8.27188 2.58433 8.42188 2.45621C8.5375 2.35621 8.65625 2.26246 8.78125 2.17496C9.78438 1.46871 11.0437 1.18433 12.275 1.41871C14.4375 1.83121 16 3.72183 16 5.92183V6.02496C16 7.33433 15.4563 8.58433 14.4969 9.47496L9.02188 14.5593L8.94375 14.6312C8.6875 14.8687 8.35 15.0031 8 15.0031C7.65 15.0031 7.3125 14.8718 7.05625 14.6312ZM7.47188 4.53121C7.45938 4.52183 7.45 4.50933 7.44063 4.49683L6.88438 3.87183L6.88125 3.86871C6.15937 3.05933 5.06875 2.69058 4.00625 2.89371C2.55 3.17183 1.5 4.44058 1.5 5.92183V6.02496C1.5 6.91558 1.87188 7.76871 2.525 8.37496L8 13.4593L13.475 8.37496C14.1281 7.76871 14.5 6.91558 14.5 6.02496V5.92183C14.5 4.44371 13.45 3.17183 11.9969 2.89371C10.9344 2.69058 9.84062 3.06246 9.12187 3.86871C9.12187 3.86871 9.12187 3.86871 9.11875 3.87183C9.11562 3.87496 9.11875 3.87183 9.11563 3.87496L8.55937 4.49996C8.55 4.51246 8.5375 4.52183 8.52812 4.53433C8.3875 4.67496 8.19687 4.75308 8 4.75308C7.80312 4.75308 7.6125 4.67496 7.47188 4.53433V4.53121Z" fill="#4B5563"/>
</svg>
