<svg width="17" height="16" viewBox="0 0 17 16" fill="none" xmlns="http://www.w3.org/2000/svg">
<g clip-path="url(#clip0_8_529)">
<g clip-path="url(#clip1_8_529)">
<path d="M11.9844 8C11.9844 8.69375 11.9469 9.3625 11.8813 10H6.0875C6.01875 9.3625 5.98438 8.69375 5.98438 8C5.98438 7.30625 6.02187 6.6375 6.0875 6H11.8813C11.95 6.6375 11.9844 7.30625 11.9844 8ZM12.8844 6H16.7312C16.8969 6.64062 16.9844 7.30937 16.9844 8C16.9844 8.69063 16.8969 9.35938 16.7312 10H12.8844C12.95 9.35625 12.9844 8.6875 12.9844 8C12.9844 7.3125 12.95 6.64375 12.8844 6ZM16.4031 5H12.7563C12.4438 3.00312 11.825 1.33125 11.0281 0.2625C13.475 0.909375 15.4656 2.68438 16.4 5H16.4031ZM11.7437 5H6.225C6.41563 3.8625 6.70937 2.85625 7.06875 2.04063C7.39687 1.30313 7.7625 0.76875 8.11562 0.43125C8.46562 0.1 8.75625 0 8.98438 0C9.2125 0 9.50312 0.1 9.85312 0.43125C10.2062 0.76875 10.5719 1.30313 10.9 2.04063C11.2625 2.85313 11.5531 3.85938 11.7437 5ZM5.2125 5H1.56563C2.50312 2.68438 4.49063 0.909375 6.94063 0.2625C6.14375 1.33125 5.525 3.00312 5.2125 5ZM1.2375 6H5.08437C5.01875 6.64375 4.98438 7.3125 4.98438 8C4.98438 8.6875 5.01875 9.35625 5.08437 10H1.2375C1.07188 9.35938 0.984375 8.69063 0.984375 8C0.984375 7.30937 1.07188 6.64062 1.2375 6ZM7.06875 13.9563C6.70625 13.1438 6.41563 12.1375 6.225 11H11.7437C11.5531 12.1375 11.2594 13.1438 10.9 13.9563C10.5719 14.6938 10.2062 15.2281 9.85312 15.5656C9.50312 15.9 9.2125 16 8.98438 16C8.75625 16 8.46562 15.9 8.11562 15.5688C7.7625 15.2313 7.39687 14.6969 7.06875 13.9594V13.9563ZM5.2125 11C5.525 12.9969 6.14375 14.6687 6.94063 15.7375C4.49063 15.0906 2.50312 13.3156 1.56563 11H5.2125ZM16.4031 11C15.4656 13.3156 13.4781 15.0906 11.0312 15.7375C11.8281 14.6687 12.4437 12.9969 12.7594 11H16.4031Z" fill="#4B5563"/>
</g>
</g>
<defs>
<clipPath id="clip0_8_529">
<rect width="16" height="16" fill="white" transform="translate(0.984375)"/>
</clipPath>
<clipPath id="clip1_8_529">
<path d="M0.984375 0H16.9844V16H0.984375V0Z" fill="white"/>
</clipPath>
</defs>
</svg>
