<svg width="13" height="16" viewBox="0 0 13 16" fill="none" xmlns="http://www.w3.org/2000/svg">
<g clip-path="url(#clip0_8_524)">
<g clip-path="url(#clip1_8_524)">
<path d="M5.50625 3.08447C4.85 4.1501 4.47187 5.40635 4.47187 6.7501C4.47187 9.8126 6.43437 12.4188 9.17188 13.3657C8.78438 13.4532 8.38125 13.5001 7.96562 13.5001C4.94062 13.5001 2.48438 11.0407 2.48438 8.0001C2.48438 5.84697 3.71563 3.9876 5.50938 3.08447H5.50625ZM7.44688 1.02197C3.83125 1.2876 0.984375 4.30947 0.984375 8.0001C0.984375 11.8657 4.10938 15.0001 7.96875 15.0001C9.4625 15.0001 10.8438 14.5313 11.9812 13.7313C12.0406 13.6907 12.0969 13.647 12.1531 13.6063C12.3031 13.4938 12.4469 13.3751 12.5875 13.2501C12.6719 13.1751 12.7531 13.1001 12.8344 13.022C12.9906 12.8688 13.0312 12.6313 12.9312 12.4376C12.8312 12.2438 12.6156 12.1345 12.4 12.172C12.2844 12.1907 12.1688 12.2095 12.0531 12.222C11.8969 12.2376 11.7375 12.2501 11.575 12.2532C11.5375 12.2532 11.4969 12.2532 11.4594 12.2532C11.4563 12.2532 11.4531 12.2532 11.45 12.2532C8.425 12.247 5.975 9.7876 5.975 6.75322C5.975 5.04072 6.75313 3.5126 7.97813 2.50322C8.00938 2.4751 8.04375 2.4501 8.07812 2.42197C8.20312 2.32197 8.33437 2.22822 8.46875 2.14072C8.56563 2.07822 8.66563 2.01572 8.76875 1.95947C8.95938 1.8501 9.05625 1.63135 9.00937 1.41885C8.9625 1.20635 8.78125 1.04697 8.5625 1.02822C8.45 1.01885 8.34063 1.0126 8.22813 1.00947C8.14375 1.00635 8.05625 1.00635 7.97188 1.00635C7.86875 1.00635 7.76875 1.00947 7.66563 1.0126C7.59375 1.01572 7.52187 1.01885 7.45 1.0251L7.44688 1.02197Z" fill="#4B5563"/>
</g>
</g>
<defs>
<clipPath id="clip0_8_524">
<rect width="12" height="16" fill="white" transform="translate(0.984375)"/>
</clipPath>
<clipPath id="clip1_8_524">
<path d="M0.984375 0H12.9844V16H0.984375V0Z" fill="white"/>
</clipPath>
</defs>
</svg>
